<?xml version="1.0" encoding="UTF-8" standalone="no"?><!-- Generator: Gravit.io --><svg xmlns="http://www.w3.org/2000/svg" xmlns:xlink="http://www.w3.org/1999/xlink" style="isolation:isolate" viewBox="0 0 25 25" width="25pt" height="25pt"><defs><clipPath id="_clipPath_qixKIVo1uBm9gOtxQ9rUUxFM9zmrE6nl"><rect width="25" height="25"/></clipPath></defs><g clip-path="url(#_clipPath_qixKIVo1uBm9gOtxQ9rUUxFM9zmrE6nl)"><path d=" M 5.13 0.508 C 4.952 0.529 4.214 0.634 4.023 0.668 C 2.907 0.878 1.248 1.517 0.862 1.892 C 0.627 2.119 0.514 2.384 0.501 2.729 C 0.48 3.288 0.731 3.658 1.365 4.02 C 1.713 4.214 5.082 5.82 5.147 5.82 C 5.156 5.82 5.425 5.942 5.751 6.09 C 6.072 6.241 6.411 6.392 6.498 6.426 C 6.602 6.468 6.646 6.51 6.624 6.544 C 6.598 6.582 4.618 8.777 3.997 9.459 C 3.932 9.526 3.719 9.766 3.523 9.985 C 3.328 10.203 3.102 10.451 3.028 10.531 C 2.955 10.611 2.503 11.112 2.025 11.642 C 1.548 12.172 1.092 12.677 1.014 12.757 C 0.627 13.169 0.523 13.737 0.757 14.204 C 0.888 14.456 1.079 14.641 1.365 14.788 C 1.513 14.868 1.617 14.885 1.917 14.885 C 2.247 14.885 2.308 14.872 2.503 14.763 C 2.759 14.616 2.811 14.565 3.736 13.535 C 4.131 13.097 4.483 12.71 4.518 12.672 C 4.557 12.635 4.635 12.55 4.696 12.483 C 5.009 12.13 5.638 11.432 5.695 11.373 C 5.773 11.289 5.86 11.196 6.606 10.363 C 6.928 10.006 7.21 9.69 7.236 9.665 C 7.284 9.619 7.297 9.602 8.587 8.176 C 9.416 7.259 9.507 7.158 9.711 6.935 C 10.059 6.556 10.15 5.984 9.933 5.551 C 9.733 5.156 9.594 5.063 8.278 4.474 C 8.135 4.411 7.827 4.268 7.592 4.163 C 7.353 4.058 7.158 3.97 7.149 3.97 C 7.145 3.97 6.932 3.877 6.685 3.764 C 5.543 3.242 5.13 3.048 5.13 3.032 C 5.13 2.985 6.489 2.973 6.867 3.019 C 8.669 3.238 10.38 3.898 12.251 5.088 C 12.72 5.387 13.663 6.039 13.728 6.115 C 13.741 6.127 13.836 6.203 13.945 6.283 C 14.162 6.443 14.874 7.032 15.248 7.356 C 15.547 7.621 17.058 9.08 17.375 9.417 C 17.51 9.556 17.762 9.829 17.94 10.027 C 18.118 10.22 18.287 10.405 18.309 10.43 C 18.335 10.456 18.422 10.557 18.504 10.658 C 18.587 10.759 18.813 11.024 19.004 11.242 C 19.195 11.465 19.446 11.772 19.568 11.919 C 19.685 12.071 19.794 12.201 19.807 12.214 C 19.898 12.298 21.379 14.279 21.557 14.557 C 21.596 14.62 21.67 14.729 21.713 14.801 L 21.796 14.927 L 21.374 16 C 21.144 16.588 20.94 17.093 20.923 17.118 C 20.905 17.144 20.832 17.161 20.754 17.156 C 20.675 17.148 20.424 17.131 20.198 17.114 C 19.972 17.102 19.737 17.081 19.677 17.072 C 19.616 17.064 19.451 17.047 19.308 17.03 C 18.999 17.001 18.743 16.967 18.587 16.942 C 18.522 16.933 18.383 16.917 18.283 16.904 C 18.109 16.883 17.775 16.828 17.506 16.778 C 17.445 16.765 17.327 16.744 17.245 16.731 C 16.845 16.664 15.773 16.395 15.256 16.227 C 14.236 15.903 13.511 15.562 12.911 15.125 C 12.39 14.746 12.178 14.477 11.848 13.77 C 11.674 13.396 11.492 13.207 11.166 13.068 C 10.31 12.693 9.359 13.316 9.381 14.233 C 9.399 14.969 10.211 16.239 11.105 16.929 C 11.296 17.076 11.383 17.169 11.37 17.215 C 11.357 17.253 11.218 17.585 11.057 17.956 C 10.345 19.617 9.785 21.312 9.624 22.267 C 9.611 22.347 9.59 22.46 9.581 22.519 C 9.568 22.578 9.551 22.81 9.537 23.037 C 9.511 23.571 9.603 23.827 9.924 24.139 C 10.484 24.681 11.413 24.601 11.856 23.975 C 12.004 23.764 12.065 23.584 12.099 23.255 C 12.16 22.658 12.178 22.553 12.299 22.078 C 12.46 21.459 13.042 19.802 13.289 19.259 C 13.311 19.213 13.402 18.999 13.493 18.784 C 13.58 18.57 13.671 18.385 13.689 18.376 C 13.706 18.364 13.875 18.41 14.062 18.477 C 14.683 18.7 15.777 18.994 16.507 19.137 C 18.083 19.445 19.829 19.638 21.418 19.68 C 21.956 19.693 22.026 19.684 22.26 19.596 C 22.521 19.491 22.751 19.31 22.89 19.091 C 22.933 19.02 23.307 18.111 23.715 17.072 C 24.688 14.603 24.683 14.649 24.101 13.766 C 23.585 12.984 22.295 11.221 21.839 10.679 C 21.8 10.632 21.631 10.422 21.457 10.216 C 21.153 9.846 20.914 9.556 20.827 9.463 C 20.806 9.438 20.636 9.244 20.458 9.038 C 20.28 8.828 20.124 8.651 20.111 8.639 C 20.098 8.626 19.963 8.475 19.807 8.302 C 19.329 7.764 19.077 7.511 18.135 6.599 C 17.197 5.694 16.798 5.332 16.099 4.765 C 16.029 4.71 15.951 4.643 15.925 4.617 C 15.703 4.415 14.188 3.309 13.91 3.149 C 13.867 3.124 13.663 2.998 13.454 2.863 C 12.325 2.148 10.653 1.366 9.616 1.063 C 9.464 1.017 9.212 0.945 9.051 0.899 C 8.747 0.811 8.1 0.668 7.814 0.63 C 7.722 0.613 7.583 0.596 7.51 0.584 C 7.432 0.571 7.288 0.554 7.193 0.537 C 6.989 0.512 5.356 0.487 5.13 0.508 Z " fill="rgb(0,0,0)"/></g></svg>