<?xml version="1.0" encoding="UTF-8" standalone="no"?><!-- Generator: Gravit.io --><svg xmlns="http://www.w3.org/2000/svg" xmlns:xlink="http://www.w3.org/1999/xlink" style="isolation:isolate" viewBox="0 0 25 25" width="25pt" height="25pt"><defs><clipPath id="_clipPath_rW7Kxv8Ue6Z29b0HMUykStBkjS3484gs"><rect width="25" height="25"/></clipPath></defs><g clip-path="url(#_clipPath_rW7Kxv8Ue6Z29b0HMUykStBkjS3484gs)"><clipPath id="_clipPath_TLjonEhdLXoGPhjO6UniiamIQlI7Bkks"><rect x="0.5" y="0.5" width="24" height="24" transform="matrix(1,0,0,1,0,0)" fill="rgb(255,255,255)"/></clipPath><g clip-path="url(#_clipPath_TLjonEhdLXoGPhjO6UniiamIQlI7Bkks)"><g><path d=" M 12.5 2.662 C 15.704 2.662 16.084 2.674 17.349 2.732 C 18.519 2.786 19.155 2.981 19.577 3.146 C 20.098 3.338 20.57 3.644 20.957 4.043 C 21.356 4.43 21.662 4.902 21.854 5.423 C 22.019 5.845 22.214 6.481 22.268 7.651 C 22.326 8.916 22.338 9.296 22.338 12.5 C 22.338 15.704 22.326 16.084 22.268 17.349 C 22.214 18.519 22.019 19.155 21.854 19.577 C 21.451 20.624 20.624 21.451 19.577 21.855 C 19.155 22.019 18.519 22.214 17.349 22.268 C 16.084 22.326 15.704 22.338 12.5 22.338 C 9.296 22.338 8.916 22.326 7.651 22.268 C 6.481 22.214 5.845 22.019 5.423 21.855 C 4.902 21.662 4.43 21.356 4.042 20.958 C 3.644 20.57 3.338 20.098 3.145 19.577 C 2.981 19.155 2.786 18.519 2.732 17.349 C 2.674 16.084 2.662 15.704 2.662 12.5 C 2.662 9.296 2.674 8.916 2.732 7.651 C 2.786 6.481 2.981 5.845 3.145 5.423 C 3.338 4.902 3.644 4.43 4.043 4.043 C 4.43 3.644 4.902 3.338 5.423 3.146 C 5.845 2.981 6.481 2.786 7.651 2.732 C 8.916 2.674 9.296 2.662 12.5 2.662 Z  M 12.5 0.5 C 9.241 0.5 8.832 0.513 7.552 0.572 C 6.275 0.631 5.403 0.833 4.64 1.13 C 3.839 1.431 3.114 1.904 2.514 2.514 C 1.904 3.113 1.431 3.839 1.13 4.64 C 0.833 5.403 0.631 6.275 0.572 7.552 C 0.513 8.832 0.5 9.241 0.5 12.5 C 0.5 15.759 0.513 16.168 0.572 17.448 C 0.631 18.725 0.833 19.597 1.131 20.36 C 1.431 21.161 1.904 21.886 2.514 22.486 C 3.114 23.096 3.839 23.569 4.64 23.87 C 5.403 24.167 6.275 24.369 7.552 24.428 C 8.833 24.486 9.241 24.5 12.5 24.5 C 15.759 24.5 16.168 24.486 17.448 24.428 C 18.725 24.369 19.597 24.167 20.36 23.87 C 21.972 23.246 23.246 21.972 23.87 20.36 C 24.167 19.597 24.369 18.725 24.428 17.448 C 24.487 16.167 24.5 15.759 24.5 12.5 C 24.5 9.241 24.487 8.832 24.428 7.552 C 24.369 6.275 24.167 5.403 23.87 4.64 C 23.569 3.839 23.096 3.113 22.486 2.514 C 21.887 1.904 21.161 1.431 20.36 1.13 C 19.597 0.833 18.725 0.631 17.448 0.572 C 16.168 0.513 15.759 0.5 12.5 0.5 L 12.5 0.5 L 12.5 0.5 Z " fill="rgb(0,0,0)"/><path d=" M 12.5 6.338 C 9.097 6.338 6.338 9.097 6.338 12.5 C 6.338 15.903 9.097 18.662 12.5 18.662 C 15.903 18.662 18.662 15.903 18.662 12.5 C 18.662 9.097 15.903 6.338 12.5 6.338 L 12.5 6.338 Z  M 12.5 16.5 C 10.291 16.5 8.5 14.709 8.5 12.5 C 8.5 10.291 10.291 8.5 12.5 8.5 C 14.709 8.5 16.5 10.291 16.5 12.5 C 16.5 14.709 14.709 16.5 12.5 16.5 L 12.5 16.5 Z " fill="rgb(0,0,0)"/><circle vector-effect="non-scaling-stroke" cx="18.90551756988756" cy="6.094339529021822" r="1.4399666564121887" fill="rgb(0,0,0)"/></g></g></g></svg>