<?xml version="1.0" encoding="UTF-8" standalone="no"?><!-- Generator: Gravit.io --><svg xmlns="http://www.w3.org/2000/svg" xmlns:xlink="http://www.w3.org/1999/xlink" style="isolation:isolate" viewBox="0 0 25 25" width="25pt" height="25pt"><defs><clipPath id="_clipPath_CZNrDgenPLByz80RtXiQPDEUM5GwRMO5"><rect width="25" height="25"/></clipPath></defs><g clip-path="url(#_clipPath_CZNrDgenPLByz80RtXiQPDEUM5GwRMO5)"><clipPath id="_clipPath_O60317PiwdKj2Jy7QRHDiBVuUAuXka9i"><rect x="0.5" y="0.5" width="24" height="24" transform="matrix(1,0,0,1,0,0)" fill="rgb(255,255,255)"/></clipPath><g clip-path="url(#_clipPath_O60317PiwdKj2Jy7QRHDiBVuUAuXka9i)"><g><path d=" M 22.785 0.5 L 2.209 0.5 C 1.266 0.5 0.5 1.277 0.5 2.23 L 0.5 22.77 C 0.5 23.723 1.266 24.5 2.209 24.5 L 22.785 24.5 C 23.728 24.5 24.5 23.723 24.5 22.77 L 24.5 2.23 C 24.5 1.277 23.728 0.5 22.785 0.5 Z  M 7.754 21.072 L 4.196 21.072 L 4.196 9.618 L 7.759 9.618 L 7.759 21.072 L 7.754 21.072 Z  M 5.975 8.053 C 4.834 8.053 3.913 7.127 3.913 5.991 C 3.913 4.856 4.834 3.928 5.975 3.928 C 7.111 3.928 8.038 4.856 8.038 5.991 C 8.038 7.132 7.116 8.053 5.975 8.053 L 5.975 8.053 Z  M 21.087 21.072 L 17.53 21.072 L 17.53 15.5 C 17.53 14.171 17.504 12.463 15.682 12.463 C 13.829 12.463 13.544 13.909 13.544 15.404 L 13.544 21.072 L 9.988 21.072 L 9.988 9.618 L 13.4 9.618 L 13.4 11.182 L 13.448 11.182 C 13.925 10.282 15.087 9.334 16.818 9.334 C 20.418 9.334 21.087 11.707 21.087 14.792 L 21.087 21.072 L 21.087 21.072 Z " fill="rgb(0,0,0)"/></g></g></g></svg>