<?xml version="1.0" encoding="UTF-8" standalone="no"?><!-- Generator: Gravit.io --><svg xmlns="http://www.w3.org/2000/svg" xmlns:xlink="http://www.w3.org/1999/xlink" style="isolation:isolate" viewBox="0 0 25 25" width="25pt" height="25pt"><defs><clipPath id="_clipPath_82TULPEI7PaJp61AcRUDfBHl7MNvZg1b"><rect width="25" height="25"/></clipPath></defs><g clip-path="url(#_clipPath_82TULPEI7PaJp61AcRUDfBHl7MNvZg1b)"><clipPath id="_clipPath_BZBbEjbbVmUkh97W4hpoeiqa3fZhAmuO"><rect x="0" y="0" width="25" height="25" transform="matrix(1,0,0,1,0,0)" fill="rgb(255,255,255)"/></clipPath><g clip-path="url(#_clipPath_BZBbEjbbVmUkh97W4hpoeiqa3fZhAmuO)"><g><path d=" M 12.5 0.796 C 5.87 0.796 0.5 6.166 0.5 12.796 C 0.5 18.106 3.935 22.591 8.705 24.181 C 9.305 24.286 9.53 23.926 9.53 23.611 C 9.53 23.326 9.515 22.381 9.515 21.376 C 6.5 21.931 5.72 20.641 5.48 19.966 C 5.345 19.621 4.76 18.556 4.25 18.271 C 3.83 18.046 3.23 17.491 4.235 17.476 C 5.18 17.461 5.855 18.346 6.08 18.706 C 7.16 20.521 8.885 20.011 9.575 19.696 C 9.68 18.916 9.995 18.391 10.34 18.091 C 7.67 17.791 4.88 16.756 4.88 12.166 C 4.88 10.861 5.345 9.781 6.11 8.941 C 5.99 8.641 5.57 7.411 6.23 5.761 C 6.23 5.761 7.235 5.446 9.53 6.991 C 10.49 6.721 11.51 6.586 12.53 6.586 C 13.55 6.586 14.57 6.721 15.53 6.991 C 17.825 5.431 18.83 5.761 18.83 5.761 C 19.49 7.411 19.07 8.641 18.95 8.941 C 19.715 9.781 20.18 10.846 20.18 12.166 C 20.18 16.771 17.375 17.791 14.705 18.091 C 15.14 18.466 15.515 19.186 15.515 20.311 C 15.515 21.916 15.5 23.206 15.5 23.611 C 15.5 23.926 15.725 24.301 16.325 24.181 C 21.065 22.591 24.5 18.091 24.5 12.796 C 24.5 6.166 19.13 0.796 12.5 0.796 Z " fill-rule="evenodd" fill="rgb(0,0,0)"/></g></g></g></svg>